<mxfile host="app.diagrams.net" modified="2023-09-04T01:15:45.342Z" agent="Mozilla/5.0 (X11; Linux x86_64; rv:106.0) Gecko/20100101 Firefox/106.0" version="21.7.1" etag="0XxfuNiA1zt4fUdTLy-r" type="github">
  <diagram name="PÃ¡gina-1" id="AqcAgudzyXGNyDiwVxFf">
    <mxGraphModel>
      <root>
        <mxCell id="0" />
        <mxCell id="1" parent="0" />
      </root>
    </mxGraphModel>
  </diagram>
</mxfile>
